#!OML:ASF F:\VICON\USERDATA\INSTALL\rory3\rory3.ASF
:FULLY-SPECIFIED
:DEGREES
186
root 0.03256 18.2769 4.52525 -2.77782 1.52568 -4.10453
lowerback 10.0416 -0.849498 2.92465
upperback 0.104535 -0.632097 2.76587
thorax -5.53227 -0.351919 1.33896
lowerneck -15.941 -3.0887 -1.67349
upperneck 23.6529 -3.84428 -0.232635
head 10.2103 -1.95119 -0.316289
rclavicle 5.92627e-015 1.43125e-014
rhumerus -32.568 -27.8898 -73.1145
rradius 19.0188
rwrist 13.4705
rhand -17.9074 24.5289
rfingers 7.12502
rthumb 8.35968 -5.28564
lclavicle 5.92627e-015 1.43125e-014
lhumerus -29.6995 -0.266464 84.2475
lradius 27.9082
lwrist 1.88355
lhand -26.6602 28.3239
lfingers 7.12502
lthumb -0.0919151 58.3036
rfemur -13.1674 5.92773 29.3058
rtibia 27.6134
rfoot -8.72557 -4.43816
rtoes 11.6619
lfemur -8.59436 0.598182 -14.8696
ltibia 66.6838
lfoot 14.824 -15.0682
ltoes -8.08174
187
root 0.0326416 18.2774 4.70029 -2.8434 1.5178 -3.95431
lowerback 10.0351 -0.801362 2.92869
upperback 0.0870019 -0.573044 2.66294
thorax -5.54803 -0.324513 1.22025
lowerneck -15.8546 -3.16899 -1.66317
upperneck 23.7615 -3.92008 -0.396386
head 10.2296 -2.00477 -0.385577
rclavicle 1.61016e-014 -3.18055e-015
rhumerus -32.2163 -26.9848 -73.6049
rradius 19.2973
rwrist 13.1521
rhand -17.9597 24.6575
rfingers 7.12502
rthumb 8.30921 -5.15909
lclavicle 1.61016e-014 -3.18055e-015
lhumerus -30.1986 -0.0742486 84.2923
lradius 27.8311
lwrist 1.74166
lhand -26.617 28.4803
lfingers 7.12502
lthumb -0.0501399 58.46
rfemur -12.4389 5.66173 29.2536
rtibia 27.6977
rfoot -9.35125 -4.31148
rtoes 11.054
lfemur -9.80924 0.892758 -15.0835
ltibia 67.7504
lfoot 12.7991 -14.853
ltoes -11.7814
188
root 0.0298845 18.2758 4.86623 -2.86793 1.18772 -3.74577
lowerback 9.9717 -0.587878 2.80486
upperback 0.182483 -0.316513 2.55236
thorax -5.4111 -0.195274 1.13391
lowerneck -15.9727 -3.28933 -1.77152
upperneck 23.8976 -4.0736 -0.338287
head 10.3066 -2.07706 -0.371769
rclavicle -8.4732e-015 -1.90833e-014
rhumerus -31.5564 -26.3058 -74.2522
rradius 19.5464
rwrist 12.2413
rhand -17.8449 23.9293
rfingers 7.12502
rthumb 8.42 -5.88287
lclavicle -8.4732e-015 -1.90833e-014
lhumerus -30.2919 -0.00711283 84.3761
lradius 27.6568
lwrist 1.50354
lhand -26.3452 30.7552
lfingers 7.12502
lthumb 0.212369 60.7348
rfemur -11.781 5.70048 29.1629
rtibia 27.6903
rfoot -9.88039 -4.21749
rtoes 9.93408
lfemur -11.0416 1.41786 -15.3566
ltibia 68.6678
lfoot 9.7406 -13.2359
ltoes -7.91683
189
root 0.0194856 18.2897 5.03571 -2.87472 0.906891 -3.89267
lowerback 9.89968 -0.450228 2.8803
upperback 0.218991 -0.127833 2.58653
thorax -5.33215 -0.103215 1.09864
lowerneck -15.9352 -3.2333 -1.83467
upperneck 23.9785 -4.00193 -0.248609
head 10.332 -2.03886 -0.320139
rclavicle 2.00648e-014 -5.1684e-015
rhumerus -30.8276 -25.8563 -74.7523
rradius 19.5223
rwrist 11.8439
rhand -17.9611 23.6533
rfingers 7.12502
rthumb 8.30791 -6.16337
lclavicle 2.00648e-014 -5.1684e-015
lhumerus -30.4281 0.520407 84.3224
lradius 27.2837
lwrist 1.52667
lhand -26.3217 30.4386
lfingers 7.12502
lthumb 0.23503 60.4182
rfemur -11.112 6.01735 29.4842
rtibia 27.6204
rfoot -10.2212 -4.46204
rtoes 10.2011
lfemur -12.3449 1.94139 -15.1252
ltibia 69.3786
lfoot 7.44412 -12.0938
ltoes -6.16835
190
root 0.0107904 18.2959 5.20885 -3.01447 0.841173 -4.40335
lowerback 9.99452 -0.400594 3.43621
upperback 0.23802 0.00987278 2.65494
thorax -5.36595 -0.0487903 0.838837
lowerneck -15.9594 -3.20284 -1.73549
upperneck 24.077 -3.97612 -0.28643
head 10.3688 -2.02194 -0.348114
rclavicle -1.23246e-014 4.77083e-015
rhumerus -30.322 -25.4743 -75.1213
rradius 19.521
rwrist 11.7223
rhand -18.1439 23.8214
rfingers 7.12502
rthumb 8.13142 -6.00214
lclavicle -1.23246e-014 4.77083e-015
lhumerus -30.8343 0.880369 84.2357
lradius 27.1585
lwrist 1.666
lhand -26.1874 29.8029
lfingers 7.12502
lthumb 0.364758 59.7823
rfemur -10.2057 6.1087 30.2032
rtibia 27.4053
rfoot -10.5527 -4.72127
rtoes 10.3935
lfemur -13.5151 2.22731 -14.484
ltibia 69.9563
lfoot 5.66878 -11.2943
ltoes -6.92402
191
root 0.00757843 18.2952 5.37771 -3.03207 0.756535 -4.45852
lowerback 9.92811 -0.26092 3.62775
upperback 0.228028 0.209227 2.56341
thorax -5.336 0.0435897 0.60631
lowerneck -15.96 -3.32309 -1.83171
upperneck 24.1827 -4.15737 -0.145892
head 10.4147 -2.09639 -0.308384
rclavicle 1.90088e-015 -1.47101e-014
rhumerus -29.9599 -24.8788 -75.5788
rradius 19.7631
rwrist 11.0903
rhand -17.8025 23.4048
rfingers 7.12502
rthumb 8.46096 -6.40576
lclavicle 1.90088e-015 -1.47101e-014
lhumerus -31.2366 1.09827 84.1275
lradius 27.2691
lwrist 0.963071
lhand -25.1555 30.7583
lfingers 7.12502
lthumb 1.3614 60.7337
rfemur -9.39851 6.15501 30.3861
rtibia 27.079
rfoot -10.8503 -4.90264
rtoes 10.2241
lfemur -14.6885 2.46608 -14.4811
ltibia 70.3082
lfoot 4.09726 -10.3734
ltoes -8.08679
